<?xml version="1.0" encoding="UTF-8" standalone="no"?>
<svg
   width="10.047566"
   height="9.5998888"
   version="1.1"
   id="svg133"
   sodipodi:docname="icon-star2.svg"
   viewBox="0 0 20.095133 19.199778"
   inkscape:version="1.2 (dc2aeda, 2022-05-15)"
   xmlns:inkscape="http://www.inkscape.org/namespaces/inkscape"
   xmlns:sodipodi="http://sodipodi.sourceforge.net/DTD/sodipodi-0.dtd"
   xmlns="http://www.w3.org/2000/svg"
   xmlns:svg="http://www.w3.org/2000/svg">
  <defs
     id="defs137" />
  <sodipodi:namedview
     id="namedview135"
     pagecolor="#505050"
     bordercolor="#eeeeee"
     borderopacity="1"
     inkscape:showpageshadow="0"
     inkscape:pageopacity="0"
     inkscape:pagecheckerboard="0"
     inkscape:deskcolor="#505050"
     showgrid="false"
     inkscape:zoom="64.1875"
     inkscape:cx="4.1285297"
     inkscape:cy="3.8870497"
     inkscape:window-width="1424"
     inkscape:window-height="1205"
     inkscape:window-x="2240"
     inkscape:window-y="25"
     inkscape:window-maximized="0"
     inkscape:current-layer="svg133" />
  <path
     d="m 10.748407,2.1122942 1.99,4.031 c 0.112,0.228 0.33,0.386 0.58,0.422 l 4.45,0.647 a 0.772,0.772 0 0 1 0.427,1.316 l -3.22,3.1379998 a 0.773,0.773 0 0 0 -0.222,0.683 l 0.76,4.431 a 0.772,0.772 0 0 1 -1.12,0.813 l -3.98,-2.092 a 0.773,0.773 0 0 0 -0.7180001,0 l -3.98,2.092 a 0.772,0.772 0 0 1 -1.119,-0.813 l 0.76,-4.431 a 0.77,0.77 0 0 0 -0.222,-0.683 l -3.22,-3.1379998 a 0.772,0.772 0 0 1 0.428,-1.316 l 4.449,-0.647 a 0.772,0.772 0 0 0 0.58,-0.422 l 1.99,-4.031 a 0.774,0.774 0 0 1 1.3870001,0 z"
     fill="#fc7614"
     id="path131" />
</svg>
